<svg width="108" height="106" viewBox="0 0 108 106" fill="none" xmlns="http://www.w3.org/2000/svg">
<path d="M76.9953 148.713H55.7742C47.5164 148.713 42.247 139.905 42.247 133.841C42.247 129.413 45.9202 125.81 50.435 125.81C51.8329 125.81 53.0753 126.141 54.1174 126.59C54.5841 123.938 55.3858 121.287 55.982 119.515C55.3557 119.219 54.7408 118.905 54.1437 118.574C52.4303 119.113 48.708 120.038 43.3673 120.038C36.8146 120.038 31.133 118.456 23.1032 114.395C22.0147 113.845 21.5876 112.533 22.1486 111.465C22.7097 110.398 24.047 109.978 25.1352 110.529C32.4769 114.242 37.5888 115.689 43.3673 115.689C45.8081 115.689 47.836 115.481 49.4252 115.218C46.9613 112.909 45.3748 110.121 45.3748 106.865C45.3748 103.261 47.2185 100.888 49.5079 99.5223C46.0124 99.0955 39.3524 97.8313 31.9711 94.0985C30.8826 93.5482 30.4555 92.2365 31.0166 91.1689C31.5776 90.1016 32.9146 89.682 34.0031 90.2326C40.1437 93.3383 45.6769 94.576 49.0045 95.0687C48.4949 93.1341 48.2363 91.0677 48.2363 88.8855C48.2363 87.2656 48.3778 85.6787 48.6489 84.1339C43.9251 85.3693 38.749 85.9939 33.2108 85.9939C28.0466 85.9939 23.1508 85.4427 18.659 84.3554C17.4704 84.0678 16.7444 82.8891 17.0376 81.7233C17.3308 80.5574 18.5319 79.8435 19.7214 80.1332C23.8658 81.1364 28.4043 81.645 33.2108 81.645C39.3698 81.645 45.015 80.823 50.0043 79.2007C50.4979 77.8977 51.088 76.6405 51.7661 75.4375C50.5872 74.855 49.5266 74.0814 48.6226 73.1631C46.5504 75.0814 43.4232 76.3093 40.2936 76.3093C36.8075 76.3093 34.4651 75.7042 33.2111 75.2577C31.9572 75.7042 29.6148 76.3093 26.1287 76.3093C22.0638 76.3093 18.0028 74.238 16.2531 71.2727C15.6397 70.2332 16.0015 68.9026 17.0612 68.3013C18.1213 67.6996 19.4772 68.0543 20.0906 69.094C21.0546 70.7281 23.6503 71.9601 26.1287 71.9601C28.3901 71.9601 30.0059 71.656 30.9941 71.3863V67.3108C26.8246 66.3288 23.7162 62.6409 23.7162 58.254C23.7162 55.089 27.3546 53.1228 33.2111 53.1228C39.0677 53.1228 42.7057 55.089 42.7057 58.254C42.7057 62.6409 39.5977 66.3291 35.4282 67.3108V71.3863C36.4167 71.656 38.0325 71.9601 40.2936 71.9601C42.6218 71.9601 45.0543 70.8723 46.1395 69.3857C45.6163 68.0876 45.3307 66.6842 45.3307 65.2331C45.3307 58.9427 50.5482 53.8248 56.9617 53.8248C62.2879 53.8248 66.8435 57.4207 68.1891 62.2663C70.8673 61.4443 73.7146 61.001 76.6654 61.001C79.6161 61.001 82.4634 61.444 85.1416 62.2663C86.4875 57.4207 91.0431 53.8248 96.369 53.8248C102.782 53.8248 108 58.9424 108 65.2331C108 69.5971 105.415 73.5357 101.564 75.4375C103.813 79.4277 105.094 84.0124 105.094 88.8858C105.094 96.2696 102.13 102.333 96.5222 106.42C96.1092 106.721 95.6827 107.011 95.2446 107.288C96.0749 108.672 97.2112 110.668 98.3561 113.001C98.8873 114.083 98.4232 115.383 97.3197 115.904C96.2174 116.425 94.8916 115.97 94.3607 114.887C93.23 112.583 92.0907 110.603 91.3186 109.323C87.1278 111.077 82.1625 111.988 76.6651 111.988C68.673 111.988 61.8064 110.063 56.808 106.42C55.3081 105.327 53.9967 104.092 52.8811 102.728C51.4427 103.199 49.8083 104.299 49.8083 106.866C49.8083 113.035 60.1291 116.979 65.5866 118.202C66.7803 118.47 67.5267 119.636 67.2541 120.806C66.9816 121.977 65.7921 122.711 64.599 122.442C63.1207 122.111 61.6009 121.688 60.0951 121.175C59.3165 123.534 58.1698 127.507 58.1698 130.44C58.1698 131.343 57.6005 132.152 56.7397 132.473C55.878 132.793 54.9049 132.558 54.2944 131.883C54.29 131.879 52.6556 130.16 50.4347 130.16C48.3648 130.16 46.6808 131.812 46.6808 133.842C46.6808 138.079 50.4991 144.365 55.7739 144.365H76.995C84.6243 144.365 90.3334 142.631 93.964 139.213C97.6 135.789 98.3632 131.348 98.3632 128.226C98.3632 126.57 98.0339 124.618 97.3845 122.421C97.0436 121.268 97.7203 120.061 98.8962 119.727C100.07 119.393 101.302 120.056 101.643 121.21C102.409 123.8 102.797 126.16 102.797 128.225C102.797 133.916 100.804 138.8 97.0345 142.35C92.5504 146.572 85.8082 148.713 76.9953 148.713ZM76.6657 65.3499C63.4346 65.3499 52.6707 75.9081 52.6707 88.8855C52.6707 94.9237 54.9527 99.6487 59.4531 102.929C63.6811 106.01 69.6332 107.639 76.6657 107.639C83.6982 107.639 89.6502 106.01 93.8783 102.929C98.3789 99.6487 100.661 94.924 100.661 88.8855C100.661 75.9081 89.8967 65.3499 76.6657 65.3499ZM89.3008 63.9092C93.1357 65.7834 96.4808 68.4819 99.0934 71.7679C101.744 70.6986 103.566 68.1157 103.566 65.2328C103.566 61.3405 100.338 58.1737 96.3693 58.1737C92.8886 58.1737 89.9393 60.656 89.3008 63.9092ZM56.962 58.1737C52.9938 58.1737 49.7651 61.3405 49.7651 65.2328C49.7651 68.1157 51.5873 70.6989 54.238 71.7679C56.8502 68.4828 60.1965 65.7828 64.0305 63.9092C63.392 60.656 60.4428 58.1737 56.962 58.1737ZM33.2114 63.2179C35.9272 63.2179 38.1501 61.1089 38.2672 58.4729C37.7688 58.0803 35.9922 57.472 33.2114 57.472C30.4307 57.472 28.6541 58.0806 28.1557 58.4729C28.2727 61.1086 30.4957 63.2179 33.2114 63.2179ZM40.6983 148.713H9.56495C0.271658 148.713 -7.72008 145.954 -13.5471 140.735C-19.7312 135.196 -23 127.235 -23 117.712C-23 110.681 -20.9692 99.3584 -11.2951 85.3499C-7.28583 79.5443 -3.30873 75.2125 -1.19899 73.0573C-1.95426 72.1811 -2.65396 71.264 -3.29721 70.3077C-6.69698 65.2513 -8.42067 59.2097 -8.42067 52.3504C-8.42067 45.7028 -6.79364 39.4228 -3.90852 33.8706C-9.36276 30.6101 -12.7894 24.7312 -12.7894 18.3816C-12.7894 8.38915 -4.50121 0.259888 5.686 0.259888C13.6828 0.259888 20.7676 5.38761 23.2341 12.701C26.432 11.9262 29.7732 11.5156 33.2114 11.5156C36.6496 11.5156 39.9909 11.9262 43.1891 12.701C45.6553 5.38761 52.7401 0.259888 60.7369 0.259888C70.9244 0.259888 79.2123 8.38915 79.2123 18.3816C79.2123 24.7312 75.7854 30.6101 70.3311 33.8706C73.2162 39.4228 74.8432 45.7031 74.8432 52.3504C74.8432 53.3011 74.8095 54.2504 74.7427 55.1713C74.6558 56.3694 73.5946 57.2717 72.374 57.1864C71.1526 57.1012 70.233 56.0612 70.3196 54.8631C70.379 54.0443 70.4091 53.1988 70.4091 52.3504C70.4091 32.2321 53.7224 15.8649 33.2114 15.8649C12.7005 15.8649 -3.98627 32.2324 -3.98627 52.3504C-3.98627 60.1407 -1.47627 66.6245 3.36105 71.5171C3.40007 71.5522 3.4385 71.5893 3.47545 71.6276C3.49407 71.647 3.5124 71.667 3.53043 71.6867C5.86838 74.0072 8.73814 75.964 12.1187 77.5248C13.2266 78.0366 13.7017 79.3318 13.1802 80.4185C12.6588 81.5049 11.3371 81.9706 10.2301 81.46C7.08185 80.0062 4.30197 78.2366 1.91021 76.1673C-0.110559 78.2445 -3.91562 82.4064 -7.67899 87.8693C-12.6455 95.0785 -18.5656 106.108 -18.5656 117.712C-18.5656 125.98 -15.7961 132.831 -10.5567 137.524C-9.36602 138.59 -8.06328 139.537 -6.65973 140.36C-9.00478 137.308 -10.68 133.57 -11.4039 129.408C-11.6481 128.004 -11.7687 126.634 -11.7687 125.311C-11.7687 120.99 -10.481 117.168 -8.00534 114.29C-5.23639 111.072 -1.2655 109.371 3.4784 109.371C13.6831 109.371 22.5019 117.49 24.4479 128.676C24.692 130.08 24.8126 131.45 24.8126 132.773C24.8126 137.094 23.525 140.916 21.0493 143.793C20.8811 143.989 20.7079 144.179 20.5308 144.364H40.6989C41.9236 144.364 42.9159 145.337 42.9159 146.538C42.9159 147.74 41.923 148.713 40.6983 148.713ZM-7.32574 125.383C-7.32574 126.446 -7.22966 127.549 -7.03338 128.676C-5.45218 137.766 1.52828 144.364 9.56495 144.364C12.9612 144.364 15.7603 143.197 17.6599 140.989C19.4326 138.928 20.3682 136.009 20.3688 132.701C20.3688 131.638 20.2727 130.535 20.0764 129.408C18.4952 120.318 11.5148 113.72 3.47811 113.72C0.0818768 113.72 -2.71722 114.887 -4.61679 117.095C-6.38955 119.156 -7.32515 122.075 -7.32574 125.383ZM65.4885 26.5863C66.4235 27.7112 67.2988 28.8861 68.1096 30.1053C72.2079 27.6173 74.7785 23.1762 74.7785 18.3816C74.7785 10.7876 68.4794 4.6091 60.7372 4.6091C54.6926 4.6091 49.3341 8.46163 47.4319 13.9692C48.8349 14.4705 50.2023 15.044 51.5305 15.6851C52.7156 11.7989 56.3944 8.95831 60.7372 8.95831C66.0348 8.95831 70.3444 13.1855 70.3444 18.3816C70.3441 21.885 68.4277 24.9611 65.4885 26.5863ZM5.686 4.6091C-2.05625 4.6091 -8.35534 10.7876 -8.35534 18.3816C-8.35534 23.1759 -5.78503 27.6173 -1.68644 30.1053C-0.875889 28.8861 -0.000299454 27.7112 0.934706 26.5865C-2.00481 24.9614 -3.92123 21.885 -3.92123 18.3816C-3.92123 13.1855 0.38872 8.95831 5.686 8.95831C10.0285 8.95831 13.7076 11.7989 14.8927 15.6851C16.2211 15.044 17.5886 14.4708 18.9913 13.9692C17.0893 8.46163 11.7306 4.6091 5.686 4.6091ZM5.686 13.3075C2.83368 13.3075 0.512875 15.5839 0.512875 18.3816C0.512875 20.5858 1.9986 22.5342 4.07937 23.2058C6.1365 21.2272 8.40114 19.4559 10.8384 17.9267C10.6031 15.3412 8.38223 13.3075 5.686 13.3075ZM55.5845 17.9267C58.022 19.4559 60.2864 21.2272 62.3438 23.2058C64.4246 22.5345 65.91 20.5858 65.91 18.3816C65.91 15.5839 63.5892 13.3075 60.7369 13.3075C58.0406 13.3075 55.8201 15.3412 55.5845 17.9267ZM8.77213 140.015C3.07608 140.015 -1.8576 133.793 -2.72314 128.209C-3.28272 124.599 -2.80857 121.993 -1.27348 120.241C-0.0106449 118.8 1.85493 118.069 4.27122 118.069C9.96727 118.069 14.9009 124.291 15.7668 129.875C16.3264 133.485 15.8522 136.091 14.3171 137.843C13.054 139.284 11.1884 140.015 8.77213 140.015ZM4.27093 122.419C3.20556 122.419 2.47127 122.64 2.08905 123.076C1.73255 123.483 1.20312 124.606 1.66042 127.556C2.28297 131.572 5.87222 135.665 8.77213 135.665C9.8375 135.665 10.5718 135.444 10.954 135.008C11.3102 134.601 11.8399 133.479 11.3826 130.528C10.7598 126.511 7.17083 122.419 4.27093 122.419ZM80.8863 103.189C79.2729 103.189 77.7967 102.604 76.6657 101.639C75.5347 102.604 74.0581 103.189 72.445 103.189C70.1543 103.189 68.0183 101.98 66.8707 100.034C66.2573 98.9946 66.6192 97.6643 67.6792 97.0629C68.739 96.461 70.0952 96.8162 70.7083 97.8559C71.0663 98.4628 71.7317 98.8397 72.445 98.8397C73.5497 98.8397 74.4486 97.9583 74.4486 96.8747V95.3534H74.1474C72.9227 95.3534 71.9303 94.38 71.9303 93.1788C71.9303 91.9775 72.9227 91.0042 74.1474 91.0042H79.1836C80.4083 91.0042 81.4007 91.9775 81.4007 93.1788C81.4007 94.38 80.4083 95.3534 79.1836 95.3534H78.8824V96.8747C78.8824 97.9583 79.7814 98.8397 80.886 98.8397C81.5993 98.8397 82.2648 98.4628 82.6227 97.8559C83.2358 96.8165 84.593 96.4616 85.6518 97.0629C86.7119 97.6643 87.074 98.9946 86.4603 100.034C85.3131 101.98 83.177 103.189 80.8863 103.189ZM85.5167 90.1442C84.292 90.1442 83.2997 89.1708 83.2997 87.9696V84.8005C83.2997 83.5992 84.292 82.6259 85.5167 82.6259C86.7414 82.6259 87.7338 83.5992 87.7338 84.8005V87.9696C87.7338 89.1708 86.7411 90.1442 85.5167 90.1442ZM67.8149 90.1442C66.5902 90.1442 65.5978 89.1708 65.5978 87.9696V84.8005C65.5978 83.5992 66.5902 82.6259 67.8149 82.6259C69.0396 82.6259 70.0319 83.5992 70.0319 84.8005V87.9696C70.0319 89.1708 69.0393 90.1442 67.8149 90.1442ZM44.0244 50.4283C42.7997 50.4283 41.8074 49.455 41.8074 48.2537V46.1957C41.8065 46.1626 41.8065 46.1296 41.8074 46.0968V44.0411C41.8074 42.8398 42.7997 41.8665 44.0244 41.8665C44.981 41.8665 45.7963 42.4609 46.107 43.2936L46.8844 43.0735C48.0595 42.7395 49.2898 43.4052 49.6294 44.5592C49.9691 45.7129 49.291 46.9185 48.1148 47.2517L46.2415 47.7826V48.2534C46.2415 49.455 45.2491 50.4283 44.0244 50.4283ZM22.3984 50.4283C21.174 50.4283 20.1814 49.455 20.1814 48.2537V47.7829L18.3084 47.252C17.1322 46.9188 16.4538 45.7132 16.7934 44.5595C17.1334 43.4058 18.3625 42.7398 19.5387 43.0738L20.3159 43.2939C20.6266 42.4612 21.4418 41.8668 22.3984 41.8668C23.6228 41.8668 24.6155 42.8401 24.6155 44.0414V46.0977C24.6161 46.1302 24.6161 46.1626 24.6155 46.1954V48.254C24.6155 49.455 23.6228 50.4283 22.3984 50.4283Z" fill="#FFE8E8" fill-opacity="0.3"/>
</svg>
