<svg width="88" height="6" viewBox="0 0 88 6" fill="none" xmlns="http://www.w3.org/2000/svg">
<path d="M1 5L7.53269 1.96154C10.2067 0.717821 13.2933 0.71782 15.9673 1.96154L18.2827 3.03846C20.9567 4.28218 24.0433 4.28218 26.7173 3.03846L29.0327 1.96154C31.7067 0.717821 34.7933 0.71782 37.4673 1.96154L39.7827 3.03846C42.4567 4.28218 45.5433 4.28218 48.2173 3.03846L50.5327 1.96154C53.2067 0.717821 56.2933 0.71782 58.9673 1.96154L61.2827 3.03846C63.9567 4.28218 67.0433 4.28218 69.7173 3.03846L72.0327 1.96154C74.7067 0.717821 77.7933 0.71782 80.4673 1.96154L87 5" stroke="#CB7B7B" stroke-width="1.5" stroke-linecap="round"/>
</svg>
