<svg width="120" height="168" viewBox="0 0 120 168" fill="none" xmlns="http://www.w3.org/2000/svg">
<g clip-path="url(#clip0_2_67)">
<path d="M95.1857 67.6425C93.9219 67.6425 92.6594 67.2515 91.5815 66.4671C89.4204 64.8983 88.5271 62.1374 89.3576 59.5995L94.8935 42.6896L80.4496 32.2434C78.2873 30.681 77.3875 27.9252 78.2091 25.3874C79.0307 22.8495 81.3737 21.1436 84.0423 21.1436H101.875L107.337 4.24512C108.158 1.70599 110.502 0 113.171 0C115.84 0 118.185 1.70599 119.006 4.24512L120.669 9.3913C121.227 11.1152 120.281 12.9648 118.556 13.5223C116.832 14.0799 114.982 13.134 114.425 11.41L113.171 7.53278L108.022 23.4609C107.202 26.0001 104.858 27.7061 102.188 27.7061H85.374L98.9937 37.5575C101.162 39.1251 102.061 41.8885 101.228 44.4327L96.0111 60.3712L109.557 50.4838C111.719 48.906 114.625 48.906 116.787 50.4838L130.332 60.3712L125.116 44.4327C124.282 41.8885 125.181 39.1251 127.35 37.5562L140.969 27.7061H135.213C133.402 27.7061 131.932 26.2372 131.932 24.4248C131.932 22.6124 133.402 21.1436 135.213 21.1436H142.301C144.968 21.1436 147.313 22.8495 148.134 25.3874C148.956 27.9252 148.055 30.681 145.894 32.2434L131.45 42.6896L136.984 59.5995C137.816 62.1374 136.922 64.897 134.762 66.4671C132.601 68.0372 129.7 68.0334 127.543 66.4594L113.171 55.9697L98.8002 66.4594C97.7197 67.249 96.4521 67.6425 95.1857 67.6425ZM122.089 26.8204C121.231 26.8204 120.372 26.4858 119.728 25.8181C119.716 25.8052 119.689 25.777 119.676 25.7642C118.44 24.4389 118.512 22.3625 119.836 21.1256C121.158 19.8926 123.229 19.9618 124.466 21.2781C125.708 22.5829 125.665 24.6465 124.367 25.8988C123.731 26.514 122.91 26.8204 122.089 26.8204ZM122.292 23.3225L122.075 23.525L122.292 23.3225Z" fill="#FFE8E8" fill-opacity="0.3"/>
<path d="M127.859 167.999C127.646 167.999 127.43 167.988 127.215 167.966C124.588 167.689 122.457 165.767 121.913 163.18L117.812 143.678L97.9876 141.638C95.3588 141.367 93.2247 139.45 92.6748 136.865C92.1249 134.281 93.2952 131.66 95.5869 130.343L112.867 120.417L108.681 100.932C108.126 98.3485 109.291 95.726 111.579 94.4046C113.868 93.0831 116.723 93.3869 118.681 95.1595L133.462 108.527L150.7 98.5241C152.984 97.1975 155.84 97.4948 157.804 99.2624C159.767 101.031 160.361 103.839 159.282 106.25L151.136 124.438L165.975 137.741C167.942 139.505 168.542 142.312 167.468 144.726C166.393 147.14 163.904 148.572 161.279 148.29L141.463 146.164L133.397 164.387C132.415 166.606 130.241 167.999 127.859 167.999ZM100.19 135.268L118.844 137.188C121.479 137.458 123.615 139.382 124.159 141.974L128.019 160.324L135.608 143.177C136.681 140.755 139.169 139.317 141.803 139.6L160.449 141.601L146.485 129.083C144.513 127.316 143.916 124.504 144.998 122.088L152.663 104.973L136.444 114.384C134.152 115.713 131.294 115.412 129.33 113.637L115.421 101.058L119.359 119.392C119.917 121.982 118.747 124.609 116.45 125.928L100.19 135.268Z" fill="#FFE8E8" fill-opacity="0.3"/>
<path d="M32.9523 120.392C32.7472 120.392 32.5396 120.38 32.3306 120.359C29.7928 120.092 27.733 118.235 27.2088 115.737L23.4469 97.8475L5.26289 95.9762C2.72377 95.7147 0.661452 93.8626 0.130813 91.3658C-0.399827 88.869 0.730666 86.3362 2.94423 85.0648L18.7942 75.9593L14.9554 58.088C14.4183 55.5925 15.5437 53.0572 17.7547 51.7806C19.9657 50.5053 22.7227 50.7975 24.6159 52.5099L38.1741 64.771L53.9843 55.5963C56.1928 54.3159 58.9498 54.603 60.848 56.3102C62.745 58.0188 63.3179 60.7322 62.2746 63.0612L54.8034 79.7443L68.4141 91.9464C70.315 93.6498 70.8943 96.362 69.8561 98.6935C68.8179 101.026 66.4146 102.411 63.8781 102.138L45.7017 100.187L38.3035 116.902C37.3551 119.045 35.2543 120.391 32.9523 120.392ZM8.10066 89.6713L24.6287 91.3722C27.1729 91.6337 29.2365 93.4922 29.7633 95.9954L33.183 112.257L39.907 97.0631C40.9426 94.7227 43.3485 93.332 45.8927 93.6075L62.413 95.3802L50.0417 84.2893C48.1358 82.582 47.559 79.8648 48.6049 77.5307L55.3955 62.3652L41.0247 70.7055C38.8111 71.9898 36.049 71.6988 34.152 69.9825L21.8281 58.8378L25.3183 75.0826C25.8566 77.5845 24.7261 80.1211 22.5074 81.3951L8.10066 89.6713Z" fill="#FFE8E8" fill-opacity="0.3"/>
<path d="M43.9995 24.2197C42.1871 24.2197 40.7183 22.7509 40.7183 20.9385V16.4062C40.7183 14.5939 42.1871 13.125 43.9995 13.125C45.8119 13.125 47.2808 14.5939 47.2808 16.4062V20.9385C47.2808 22.7509 45.8119 24.2197 43.9995 24.2197Z" fill="#FFE8E8" fill-opacity="0.3"/>
<path d="M43.9995 45.9385C42.1871 45.9385 40.7183 44.4696 40.7183 42.6572V38.125C40.7183 36.3126 42.1871 34.8438 43.9995 34.8438C45.8119 34.8438 47.2808 36.3126 47.2808 38.125V42.6572C47.2808 44.4696 45.8119 45.9385 43.9995 45.9385Z" fill="#FFE8E8" fill-opacity="0.3"/>
<path d="M57.1245 32.8125H52.5923C50.7812 32.8125 49.311 31.3436 49.311 29.5312C49.311 27.7189 50.7812 26.25 52.5923 26.25H57.1245C58.9369 26.25 60.4058 27.7189 60.4058 29.5312C60.4058 31.3436 58.9369 32.8125 57.1245 32.8125Z" fill="#FFE8E8" fill-opacity="0.3"/>
<path d="M35.4067 32.8125H30.8745C29.0621 32.8125 27.5933 31.3436 27.5933 29.5312C27.5933 27.7189 29.0621 26.25 30.8745 26.25H35.4067C37.2191 26.25 38.688 27.7189 38.688 29.5312C38.688 31.3436 37.2191 32.8125 35.4067 32.8125Z" fill="#FFE8E8" fill-opacity="0.3"/>
<path d="M56.3657 133.093C54.5546 133.093 53.0845 131.625 53.0845 129.812V125.281C53.0845 123.469 54.5546 122 56.3657 122C58.1781 122 59.647 123.469 59.647 125.281V129.812C59.647 131.625 58.1781 133.093 56.3657 133.093Z" fill="#FFE8E8" fill-opacity="0.3"/>
<path d="M56.3657 154.813C54.5546 154.813 53.0845 153.345 53.0845 151.532V147C53.0845 145.188 54.5546 143.719 56.3657 143.719C58.1781 143.719 59.647 145.188 59.647 147V151.532C59.647 153.345 58.1781 154.813 56.3657 154.813Z" fill="#FFE8E8" fill-opacity="0.3"/>
<path d="M69.4907 141.688H64.9597C63.1473 141.688 61.6785 140.219 61.6785 138.406C61.6785 136.594 63.1473 135.125 64.9597 135.125H69.4907C71.303 135.125 72.7719 136.594 72.7719 138.406C72.7719 140.219 71.303 141.688 69.4907 141.688Z" fill="#FFE8E8" fill-opacity="0.3"/>
<path d="M47.7729 141.688H43.2407C41.4296 141.688 39.9595 140.219 39.9595 138.406C39.9595 136.594 41.4296 135.125 43.2407 135.125H47.7729C49.5853 135.125 51.0542 136.594 51.0542 138.406C51.0542 140.219 49.5853 141.688 47.7729 141.688Z" fill="#FFE8E8" fill-opacity="0.3"/>
<path d="M9.84375 167.979C4.41559 167.979 0 163.563 0 158.135C0 152.707 4.41559 148.291 9.84375 148.291C15.2719 148.291 19.6875 152.707 19.6875 158.135C19.6875 163.563 15.2719 167.979 9.84375 167.979ZM9.84375 154.854C8.03394 154.854 6.5625 156.325 6.5625 158.135C6.5625 159.943 8.03394 161.416 9.84375 161.416C11.6536 161.416 13.125 159.943 13.125 158.135C13.125 156.325 11.6536 154.854 9.84375 154.854Z" fill="#FFE8E8" fill-opacity="0.3"/>
</g>
<defs>
<clipPath id="clip0_2_67">
<rect width="168" height="168" fill="white"/>
</clipPath>
</defs>
</svg>
