<svg width="25" height="25" viewBox="0 0 25 25" fill="none" xmlns="http://www.w3.org/2000/svg">
<g clip-path="url(#clip0_2_22)">
<path d="M18.1637 1.18711C15.9642 1.11719 13.8855 2.10645 12.4996 3.85776C11.1636 2.17207 9.16926 1.18359 7.05647 1.18359C7.04631 1.18359 7.03596 1.18359 7.0258 1.18364C5.20163 1.19189 3.47028 1.93203 2.15065 3.26777C0.768672 4.66655 -0.0151656 6.61045 -2.88937e-05 8.60098C0.014766 10.5416 0.74753 12.3669 2.06394 13.7413L6.89553 18.762C6.97561 18.8452 7.08249 18.8871 7.18952 18.8871C7.29128 18.8871 7.39323 18.8492 7.47233 18.7731C7.63464 18.6169 7.63962 18.3586 7.48342 18.1963L2.65251 13.1763C1.48127 11.9535 0.829024 10.3264 0.81584 8.59477C0.802315 6.81953 1.50036 5.08691 2.73098 3.84121C3.89709 2.66084 5.42365 2.00679 7.02941 1.99956C7.03845 1.99951 7.04729 1.99951 7.05637 1.99951C9.08371 1.99951 10.9906 3.03623 12.1613 4.77656C12.2371 4.88921 12.364 4.95679 12.4998 4.95679C12.6356 4.95679 12.7625 4.88921 12.8383 4.77656C14.0519 2.97241 16.0323 1.93569 18.1377 2.00259C18.3622 2.01084 18.5512 1.83311 18.5585 1.60786C18.5656 1.38271 18.3889 1.19429 18.1637 1.18711Z" fill="#FBC7C4"/>
<path d="M24.9976 8.35123C24.9228 5.2733 22.9843 2.54498 20.1739 1.56212C19.9611 1.48756 19.7285 1.59982 19.6542 1.81251C19.5798 2.02521 19.6919 2.25782 19.9046 2.33219C22.3964 3.20367 24.1154 5.63053 24.1819 8.37101C24.2252 10.1523 23.5961 11.8348 22.4106 13.1088C22.4076 13.112 22.4046 13.1153 22.4017 13.1186L22.3903 13.1305C22.3547 13.1684 22.3186 13.2059 22.2787 13.2464L13.1773 22.7055C12.9951 22.8949 12.7545 22.9993 12.5 22.9993C12.2455 22.9993 12.0049 22.895 11.8227 22.7056L8.88985 19.658C8.73365 19.4957 8.4754 19.4907 8.31305 19.6469C8.15074 19.8031 8.14576 20.0613 8.30196 20.2237L11.2348 23.2713C11.5723 23.622 12.0216 23.8151 12.5001 23.8151C12.9785 23.8151 13.4278 23.622 13.7652 23.2713L22.8632 13.8157C22.9043 13.774 22.9448 13.7318 22.9817 13.6927L23.0038 13.6697C23.01 13.6631 23.0161 13.6565 23.0218 13.6496C24.3443 12.2205 25.0459 10.3398 24.9976 8.35123Z" fill="#FBC7C4"/>
<path d="M17.7119 1.16199C16.5463 1.16199 15.4322 1.4292 14.4007 1.95627C13.6985 2.31498 13.0535 2.79157 12.5 3.35704C11.9465 2.79157 11.3015 2.31498 10.5993 1.95627C9.56778 1.4292 8.45371 1.16199 7.28804 1.16199C3.26943 1.16199 0 4.43142 0 8.45008C0 11.2964 1.50325 14.3195 4.46794 17.4353C6.9433 20.0369 9.97392 22.2056 12.0804 23.5668L12.5 23.838L12.9196 23.5668C15.0261 22.2056 18.0567 20.0369 20.5321 17.4353C23.4968 14.3195 25 11.2964 25 8.45008C25 4.43142 21.7306 1.16199 17.7119 1.16199ZM19.4118 16.3694C17.1995 18.6944 14.5048 20.671 12.5 21.9939C10.4952 20.671 7.80046 18.6944 5.58825 16.3694C2.90624 13.5507 1.54639 10.8863 1.54639 8.45008C1.54639 5.2841 4.12211 2.70838 7.28809 2.70838C9.11082 2.70838 10.7852 3.54565 11.8818 5.00544L12.5 5.82838L13.1182 5.00544C14.2148 3.54565 15.8892 2.70838 17.7119 2.70838C20.8779 2.70838 23.4536 5.2841 23.4536 8.45008C23.4536 10.8863 22.0937 13.5507 19.4118 16.3694Z" fill="#FBC7C4"/>
</g>
<defs>
<clipPath id="clip0_2_22">
<rect width="25" height="25" fill="white"/>
</clipPath>
</defs>
</svg>
