<svg width="20" height="20" viewBox="0 0 20 20" fill="none" xmlns="http://www.w3.org/2000/svg">
<path d="M11.8742 10.5001L17.7149 4.65911C18.095 4.27918 18.095 3.66488 17.7149 3.28495C17.335 2.90502 16.7207 2.90502 16.3408 3.28495L10.4999 9.12595L4.65921 3.28495C4.27911 2.90502 3.665 2.90502 3.28508 3.28495C2.90497 3.66488 2.90497 4.27918 3.28508 4.65911L9.12578 10.5001L3.28508 16.3411C2.90497 16.721 2.90497 17.3353 3.28508 17.7153C3.47442 17.9048 3.72337 18 3.97214 18C4.22092 18 4.46969 17.9048 4.65921 17.7153L10.4999 11.8743L16.3408 17.7153C16.5303 17.9048 16.7791 18 17.0279 18C17.2766 18 17.5254 17.9048 17.7149 17.7153C18.095 17.3353 18.095 16.721 17.7149 16.3411L11.8742 10.5001Z" fill="#DE9C9C"/>
</svg>
