<svg width="145" height="132" viewBox="0 0 145 132" fill="none" xmlns="http://www.w3.org/2000/svg">
<g clip-path="url(#clip0_2_85)">
<path fill-rule="evenodd" clip-rule="evenodd" d="M76.3742 52.1726C76.2225 52.1726 76.0682 52.144 75.9191 52.0837C70.3489 49.8339 67.6686 43.5235 69.9446 38.017C70.851 35.8242 72.5668 34.1115 74.7764 33.1944C76.9857 32.2774 79.4242 32.2656 81.6424 33.1618C83.4766 33.9024 84.9091 35.3051 85.676 37.1111C86.4431 38.917 86.4529 40.9102 85.7035 42.7234C85.0795 44.2327 83.8984 45.4117 82.3775 46.0428C80.8567 46.6739 79.1782 46.6819 77.6514 46.0652C75.007 44.9971 73.7344 42.0011 74.8152 39.387C75.2582 38.315 76.097 37.4778 77.1771 37.0296C77.7903 36.775 78.4962 37.06 78.7536 37.6664C79.011 38.2727 78.7227 38.9705 78.1094 39.2248C77.6225 39.4269 77.2442 39.8043 77.0445 40.2875C76.4663 41.6863 77.1473 43.2895 78.5623 43.8613C80.4848 44.6374 82.6881 43.7232 83.4737 41.8227C84.5184 39.2949 83.2881 36.3983 80.7312 35.3658C77.3819 34.0124 73.5427 35.6059 72.1739 38.9175C70.4005 43.2086 72.4891 48.1263 76.83 49.8798C77.4456 50.1283 77.7409 50.8233 77.4891 51.432C77.2988 51.8933 76.8488 52.1726 76.3742 52.1726Z" fill="#C4715A"/>
<path fill-rule="evenodd" clip-rule="evenodd" d="M90.7729 72.9461C90.7729 69.7354 93.4057 67.1327 96.6536 67.1327C99.9014 67.1327 102.534 69.7354 102.534 72.9461C102.534 76.1568 99.9014 78.7595 96.6536 78.7595C93.4057 78.7595 90.7729 76.1568 90.7729 72.9461Z" fill="#FFCEBF"/>
<path fill-rule="evenodd" clip-rule="evenodd" d="M43.4648 72.9461C43.4648 69.7354 46.0977 67.1327 49.3455 67.1327C52.5933 67.1327 55.2262 69.7354 55.2262 72.9461C55.2262 76.1568 52.5933 78.7595 49.3455 78.7595C46.0977 78.7595 43.4648 76.1568 43.4648 72.9461Z" fill="#F9BCAF"/>
<path fill-rule="evenodd" clip-rule="evenodd" d="M49.3674 72.9457C49.3674 60.0427 59.9484 49.5828 73.0006 49.5828C86.053 49.5828 96.634 60.0427 96.634 72.9457C96.634 85.8488 86.053 96.3087 73.0006 96.3087C59.9484 96.3087 49.3674 85.8488 49.3674 72.9457Z" fill="#FFDFCF"/>
<path fill-rule="evenodd" clip-rule="evenodd" d="M57.5168 72.9459C57.5168 61.4166 65.965 51.8389 77.0754 49.9299C75.7515 49.7024 74.3902 49.5828 73.0007 49.5828C59.9483 49.5828 49.3674 60.0427 49.3674 72.9457C49.3674 85.8489 59.9483 96.3087 73.0007 96.3087C74.3904 96.3087 75.7515 96.189 77.0754 95.9616C65.965 94.0527 57.5168 84.475 57.5168 72.9459Z" fill="#FFCEBF"/>
<path fill-rule="evenodd" clip-rule="evenodd" d="M55.2477 80.8395C55.2477 78.7593 57.3898 77.0729 60.0322 77.0729C62.6746 77.0729 64.8167 78.7593 64.8167 80.8395C64.8167 82.9198 62.6746 84.6062 60.0322 84.6062C57.3898 84.6062 55.2477 82.9198 55.2477 80.8395Z" fill="#FDA0C1"/>
<path fill-rule="evenodd" clip-rule="evenodd" d="M81.1823 80.8395C81.1823 78.7593 83.3245 77.0729 85.9669 77.0729C88.6093 77.0729 90.7514 78.7593 90.7514 80.8395C90.7514 82.9198 88.6093 84.6062 85.9669 84.6062C83.3245 84.6062 81.1823 82.9198 81.1823 80.8395Z" fill="#FDA0C1"/>
<path fill-rule="evenodd" clip-rule="evenodd" d="M62.8219 78.4048C62.1567 78.4048 61.6176 77.872 61.6176 77.2143V75.2807C61.6176 74.6231 62.1567 74.0902 62.8219 74.0902C63.4871 74.0902 64.0261 74.6231 64.0261 75.2807V77.2143C64.0261 77.8718 63.487 78.4048 62.8219 78.4048Z" fill="#6E6E6E"/>
<path fill-rule="evenodd" clip-rule="evenodd" d="M83.1772 78.4048C82.512 78.4048 81.973 77.872 81.973 77.2143V75.2807C81.973 74.6231 82.512 74.0902 83.1772 74.0902C83.8424 74.0902 84.3815 74.6231 84.3815 75.2807V77.2143C84.3815 77.8718 83.8424 78.4048 83.1772 78.4048Z" fill="#6E6E6E"/>
<path fill-rule="evenodd" clip-rule="evenodd" d="M72.9996 79.5557C71.623 79.5557 70.3139 78.9663 69.4082 77.9387C68.9711 77.443 69.0235 76.6911 69.5249 76.259C70.0264 75.8269 70.7868 75.8787 71.224 76.3744C71.6723 76.883 72.3194 77.1747 72.9997 77.1747C73.68 77.1747 74.3271 76.883 74.7754 76.3744C75.2121 75.8788 75.9727 75.8271 76.4745 76.259C76.9758 76.6911 77.0281 77.443 76.5913 77.9387C75.6852 78.9663 74.3762 79.5557 72.9996 79.5557Z" fill="#6E6E6E"/>
</g>
<path d="M108.461 5.04309C108.72 4.39186 109.651 4.41298 109.88 5.07526L111.49 9.73773C111.561 9.94595 111.721 10.1125 111.926 10.1935L116.522 12.0095C117.175 12.2675 117.154 13.1964 116.49 13.4245L111.816 15.0303C111.607 15.102 111.44 15.2611 111.359 15.4658L109.539 20.0505C109.28 20.7017 108.349 20.6806 108.12 20.0183L106.51 15.3559C106.439 15.1476 106.279 14.9811 106.074 14.9L101.478 13.0841C100.825 12.8261 100.846 11.8972 101.51 11.6691L106.184 10.0633C106.393 9.99163 106.56 9.83253 106.641 9.62779L108.461 5.04309Z" fill="url(#paint0_linear_2_85)"/>
<path d="M34.4614 5.04309C34.72 4.39186 35.6512 4.41298 35.8798 5.07526L37.4896 9.73773C37.5614 9.94595 37.7209 10.1125 37.9262 10.1935L42.5221 12.0095C43.175 12.2675 43.1538 13.1964 42.4899 13.4245L37.816 15.0303C37.6072 15.102 37.4403 15.2611 37.359 15.4658L35.5386 20.0505C35.28 20.7017 34.3488 20.6806 34.1202 20.0183L32.5104 15.3559C32.4386 15.1476 32.2791 14.9811 32.0738 14.9L27.4779 13.0841C26.825 12.8261 26.8462 11.8972 27.5101 11.6691L32.184 10.0633C32.3928 9.99163 32.5597 9.83253 32.641 9.62779L34.4614 5.04309Z" fill="url(#paint1_linear_2_85)"/>
<path d="M108.461 110.783C108.72 110.132 109.651 110.153 109.88 110.815L111.49 115.478C111.561 115.686 111.721 115.853 111.926 115.934L116.522 117.75C117.175 118.008 117.154 118.937 116.49 119.165L111.816 120.771C111.607 120.842 111.44 121.001 111.359 121.206L109.539 125.791C109.28 126.442 108.349 126.421 108.12 125.759L106.51 121.096C106.439 120.888 106.279 120.721 106.074 120.64L101.478 118.824C100.825 118.566 100.846 117.637 101.51 117.409L106.184 115.804C106.393 115.732 106.56 115.573 106.641 115.368L108.461 110.783Z" fill="url(#paint2_linear_2_85)"/>
<path d="M34.4614 110.783C34.72 110.132 35.6512 110.153 35.8798 110.815L37.4896 115.478C37.5614 115.686 37.7209 115.853 37.9262 115.934L42.5221 117.75C43.175 118.008 43.1538 118.937 42.4899 119.165L37.816 120.771C37.6072 120.842 37.4403 121.001 37.359 121.206L35.5386 125.791C35.28 126.442 34.3488 126.421 34.1202 125.759L32.5104 121.096C32.4386 120.888 32.2791 120.721 32.0738 120.64L27.4779 118.824C26.825 118.566 26.8462 117.637 27.5101 117.409L32.184 115.804C32.3928 115.732 32.5597 115.573 32.641 115.368L34.4614 110.783Z" fill="url(#paint3_linear_2_85)"/>
<path d="M7.46141 56.9161C7.72 56.2649 8.65119 56.286 8.87984 56.9483L10.4896 61.6108C10.5614 61.819 10.7209 61.9855 10.9262 62.0666L15.5221 63.8826C16.175 64.1405 16.1538 65.0694 15.4899 65.2975L10.816 66.9033C10.6072 66.975 10.4403 67.1341 10.359 67.3389L8.53859 71.9236C8.28 72.5748 7.34881 72.5537 7.12016 71.8914L5.51044 67.2289C5.43855 67.0207 5.27906 66.8542 5.07382 66.7731L0.477858 64.9571C-0.174973 64.6992 -0.153805 63.7703 0.510102 63.5422L5.18403 61.9364C5.39276 61.8647 5.55967 61.7056 5.64097 61.5008L7.46141 56.9161Z" fill="url(#paint4_linear_2_85)"/>
<path d="M136.461 56.9161C136.72 56.2649 137.651 56.286 137.88 56.9483L139.49 61.6108C139.561 61.819 139.721 61.9855 139.926 62.0666L144.522 63.8826C145.175 64.1405 145.154 65.0694 144.49 65.2975L139.816 66.9033C139.607 66.975 139.44 67.1341 139.359 67.3389L137.539 71.9236C137.28 72.5748 136.349 72.5537 136.12 71.8914L134.51 67.2289C134.439 67.0207 134.279 66.8542 134.074 66.7731L129.478 64.9571C128.825 64.6992 128.846 63.7703 129.51 63.5422L134.184 61.9364C134.393 61.8647 134.56 61.7056 134.641 61.5008L136.461 56.9161Z" fill="url(#paint5_linear_2_85)"/>
<path fill-rule="evenodd" clip-rule="evenodd" d="M72 1.64961C62.462 1.64961 53.4104 3.72429 45.2703 7.44636C44.9438 7.59564 44.5581 7.45199 44.4089 7.12552C44.2596 6.79905 44.4032 6.41337 44.7297 6.26409C53.0361 2.466 62.2718 0.349609 72 0.349609C81.7282 0.349609 90.9639 2.466 99.2703 6.26409C99.5968 6.41337 99.7404 6.79905 99.5911 7.12552C99.4419 7.45199 99.0562 7.59564 98.7297 7.44636C90.5896 3.72429 81.5379 1.64961 72 1.64961ZM25.7224 20.3509C25.9805 20.6004 25.9874 21.0119 25.7378 21.27C17.6051 29.6795 11.7453 40.299 9.14635 52.139C9.06938 52.4896 8.72274 52.7115 8.3721 52.6345C8.02147 52.5575 7.79961 52.2109 7.87658 51.8602C10.5286 39.7785 16.5077 28.9443 24.8033 20.3663C25.0529 20.1082 25.4644 20.1013 25.7224 20.3509ZM118.278 20.3509C118.536 20.1013 118.947 20.1082 119.197 20.3663C127.492 28.9443 133.471 39.7785 136.123 51.8602C136.2 52.2109 135.979 52.5575 135.628 52.6345C135.277 52.7115 134.931 52.4896 134.854 52.139C132.255 40.299 126.395 29.6795 118.262 21.27C118.013 21.0119 118.02 20.6004 118.278 20.3509ZM8.3721 79.3647C8.72274 79.2878 9.06938 79.5096 9.14635 79.8602C11.7453 91.7002 17.6051 102.32 25.7378 110.729C25.9874 110.987 25.9805 111.399 25.7224 111.648C25.4644 111.898 25.0529 111.891 24.8033 111.633C16.5077 103.055 10.5286 92.2207 7.87658 80.139C7.79961 79.7883 8.02147 79.4417 8.3721 79.3647ZM135.628 79.3647C135.979 79.4417 136.2 79.7883 136.123 80.139C133.471 92.2207 127.492 103.055 119.197 111.633C118.947 111.891 118.536 111.898 118.278 111.648C118.02 111.399 118.013 110.987 118.262 110.729C126.395 102.32 132.255 91.7002 134.854 79.8602C134.931 79.5096 135.277 79.2878 135.628 79.3647ZM44.4089 124.874C44.5581 124.547 44.9438 124.404 45.2703 124.553C53.4104 128.275 62.462 130.35 72 130.35C81.5379 130.35 90.5896 128.275 98.7297 124.553C99.0562 124.404 99.4419 124.547 99.5911 124.874C99.7404 125.2 99.5968 125.586 99.2703 125.735C90.9639 129.533 81.7282 131.65 72 131.65C62.2718 131.65 53.0361 129.533 44.7297 125.735C44.4032 125.586 44.2596 125.2 44.4089 124.874Z" fill="#FBC7C4"/>
<defs>
<linearGradient id="paint0_linear_2_85" x1="109" y1="4.56641" x2="109" y2="20.5272" gradientUnits="userSpaceOnUse">
<stop stop-color="#F6A0A0"/>
<stop offset="1" stop-color="#DE9C9C"/>
</linearGradient>
<linearGradient id="paint1_linear_2_85" x1="35" y1="4.56641" x2="35" y2="20.5272" gradientUnits="userSpaceOnUse">
<stop stop-color="#F6A0A0"/>
<stop offset="1" stop-color="#DE9C9C"/>
</linearGradient>
<linearGradient id="paint2_linear_2_85" x1="109" y1="110.307" x2="109" y2="126.267" gradientUnits="userSpaceOnUse">
<stop stop-color="#F6A0A0"/>
<stop offset="1" stop-color="#DE9C9C"/>
</linearGradient>
<linearGradient id="paint3_linear_2_85" x1="35" y1="110.307" x2="35" y2="126.267" gradientUnits="userSpaceOnUse">
<stop stop-color="#F6A0A0"/>
<stop offset="1" stop-color="#DE9C9C"/>
</linearGradient>
<linearGradient id="paint4_linear_2_85" x1="8" y1="56.4395" x2="8" y2="72.4002" gradientUnits="userSpaceOnUse">
<stop stop-color="#F6A0A0"/>
<stop offset="1" stop-color="#DE9C9C"/>
</linearGradient>
<linearGradient id="paint5_linear_2_85" x1="137" y1="56.4395" x2="137" y2="72.4002" gradientUnits="userSpaceOnUse">
<stop stop-color="#F6A0A0"/>
<stop offset="1" stop-color="#DE9C9C"/>
</linearGradient>
<clipPath id="clip0_2_85">
<rect width="64" height="63.8431" fill="white" transform="translate(41 32.498)"/>
</clipPath>
</defs>
</svg>
